<?xml version="1.0" standalone="no"?>
<!DOCTYPE svg PUBLIC "-//W3C//DTD SVG 20010904//EN"
 "http://www.w3.org/TR/2001/REC-SVG-20010904/DTD/svg10.dtd">
<svg version="1.0" xmlns="http://www.w3.org/2000/svg"
 width="1536.000000pt" height="1536.000000pt" viewBox="0 0 1536.000000 1536.000000"
 preserveAspectRatio="xMidYMid meet">

<g transform="translate(0.000000,1536.000000) scale(0.100000,-0.100000)"
fill="#000000" stroke="none">
<path d="M4076 11452 c-8 -13 -153 -499 -261 -877 -58 -203 -108 -378 -111
-387 -5 -16 2 -18 60 -18 l65 0 48 56 c69 81 359 351 493 459 297 241 584 393
865 460 212 51 308 60 640 60 340 -1 669 -18 785 -42 204 -41 346 -153 391
-310 12 -41 14 -595 14 -3693 0 -3532 -1 -3647 -19 -3700 -75 -222 -219 -294
-613 -307 l-183 -6 0 -134 0 -133 1425 0 1425 0 0 135 0 135 -117 0 c-473 2
-654 102 -692 383 -16 112 -15 7200 0 7283 23 126 109 234 233 293 123 58 209
71 610 91 522 25 823 1 1101 -91 361 -119 698 -354 1130 -788 l150 -151 62 0
c35 0 63 2 63 5 0 34 -210 771 -297 1044 -36 113 -68 214 -70 224 -5 16 -185
17 -3599 17 -1976 0 -3595 -3 -3598 -8z"/>
</g>
</svg>
